HIERARCHY
ROOT hip
{
  OFFSET 0 0 0
  CHANNELS 6 Xposition Yposition Zposition Zrotation Yrotation Xrotation
  JOINT abdomen
  {
    OFFSET 0 20.6881 -0.73152
    CHANNELS 3 Zrotation Xrotation Yrotation
    JOINT chest
    {
      OFFSET 0 11.7043 -0.48768
      CHANNELS 3 Zrotation Xrotation Yrotation
      JOINT neck
      {
        OFFSET 0 22.1894 -2.19456
        CHANNELS 3 Zrotation Xrotation Yrotation
        JOINT head
        {
          OFFSET -0.24384 7.07133 1.2192
          CHANNELS 3 Zrotation Xrotation Yrotation
          JOINT leftEye
          {
            OFFSET 4.14528 8.04674 8.04672
            CHANNELS 3 Zrotation Xrotation Yrotation
            End Site
            {
              OFFSET 1 0 0
            }
          }
          JOINT rightEye
          {
            OFFSET -3.6576 8.04674 8.04672
            CHANNELS 3 Zrotation Xrotation Yrotation
            End Site
            {
              OFFSET 1 0 0
            }
          }
        }
      }
      JOINT rCollar
      {
        OFFSET -2.68224 19.2634 -4.8768
        CHANNELS 3 Zrotation Xrotation Yrotation
        JOINT rShldr
        {
          OFFSET -8.77824 -1.95073 1.46304
          CHANNELS 3 Zrotation Xrotation Yrotation
          JOINT rForeArm
          {
            OFFSET -28.1742 -1.7115 0.48768
            CHANNELS 3 Zrotation Xrotation Yrotation
            JOINT rHand
            {
              OFFSET -22.5879 0.773209 7.07136
              CHANNELS 3 Zrotation Xrotation Yrotation
              JOINT rThumb1
              {
                OFFSET -1.2192 -0.487915 3.41376
                CHANNELS 3 Zrotation Xrotation Yrotation
                JOINT rThumb2
                {
                  OFFSET -3.37035 -0.52449 3.41376
                  CHANNELS 3 Zrotation Xrotation Yrotation
                  End Site
                  {
                    OFFSET -1.78271 -1.18214 1.43049
                  }
                }
              }
              JOINT rIndex1
              {
                OFFSET -7.75947 0.938293 5.60832
                CHANNELS 3 Zrotation Xrotation Yrotation
                JOINT rIndex2
                {
                  OFFSET -2.54057 -0.884171 1.56538
                  CHANNELS 3 Zrotation Xrotation Yrotation
                  End Site
                  {
                    OFFSET -1.62519 -0.234802 1.16502
                  }
                }
              }
              JOINT rMid1
              {
                OFFSET -8.24714 1.18213 3.41376
                CHANNELS 3 Zrotation Xrotation Yrotation
                JOINT rMid2
                {
                  OFFSET -3.10165 -0.590103 1.0647
                  CHANNELS 3 Zrotation Xrotation Yrotation
                  End Site
                  {
                    OFFSET -2.48547 -0.328903 0.83742
                  }
                }
              }
              JOINT rRing1
              {
                OFFSET -8.82822 0.546677 1.51678
                CHANNELS 3 Zrotation Xrotation Yrotation
                JOINT rRing2
                {
                  OFFSET -2.60934 -0.819778 -0.0198488
                  CHANNELS 3 Zrotation Xrotation Yrotation
                  End Site
                  {
                    OFFSET -2.33842 -0.294052 0.168128
                  }
                }
              }
              JOINT rPinky1
              {
                OFFSET -8.27202 -0.0477905 -0.4584
                CHANNELS 3 Zrotation Xrotation Yrotation
                JOINT rPinky2
                {
                  OFFSET -1.82734 -0.647385 -0.700984
                  CHANNELS 3 Zrotation Xrotation Yrotation
                  End Site
                  {
                    OFFSET -1.69225 -0.51767 -0.607171
                  }
                }
              }
            }
          }
        }
      }
      JOINT lCollar
      {
        OFFSET 2.68224 19.2634 -4.8768
        CHANNELS 3 Zrotation Xrotation Yrotation
        JOINT lShldr
        {
          OFFSET 8.77824 -1.95073 1.46304
          CHANNELS 3 Zrotation Xrotation Yrotation
          JOINT lForeArm
          {
            OFFSET 28.1742 -1.7115 0.48768
            CHANNELS 3 Zrotation Xrotation Yrotation
            JOINT lHand
            {
              OFFSET 22.5879 0.773209 7.07136
              CHANNELS 3 Zrotation Xrotation Yrotation
              JOINT lThumb1
              {
                OFFSET 1.2192 -0.487915 3.41376
                CHANNELS 3 Zrotation Xrotation Yrotation
                JOINT lThumb2
                {
                  OFFSET 3.37035 -0.52449 3.41376
                  CHANNELS 3 Zrotation Xrotation Yrotation
                  End Site
                  {
                    OFFSET 1.78271 -1.18214 1.43049
                  }
                }
              }
              JOINT lIndex1
              {
                OFFSET 7.75947 0.938293 5.60832
                CHANNELS 3 Zrotation Xrotation Yrotation
                JOINT lIndex2
                {
                  OFFSET 2.54057 -0.884171 1.56538
                  CHANNELS 3 Zrotation Xrotation Yrotation
                  End Site
                  {
                    OFFSET 1.62519 -0.234802 1.16502
                  }
                }
              }
              JOINT lMid1
              {
                OFFSET 8.24714 1.18213 3.41376
                CHANNELS 3 Zrotation Xrotation Yrotation
                JOINT lMid2
                {
                  OFFSET 3.10165 -0.590103 1.0647
                  CHANNELS 3 Zrotation Xrotation Yrotation
                  End Site
                  {
                    OFFSET 2.48547 -0.328903 0.83742
                  }
                }
              }
              JOINT lRing1
              {
                OFFSET 8.82822 0.546677 1.51678
                CHANNELS 3 Zrotation Xrotation Yrotation
                JOINT lRing2
                {
                  OFFSET 2.60934 -0.819778 -0.0198488
                  CHANNELS 3 Zrotation Xrotation Yrotation
                  End Site
                  {
                    OFFSET 2.33842 -0.294052 0.168128
                  }
                }
              }
              JOINT lPinky1
              {
                OFFSET 8.27202 -0.0477905 -0.4584
                CHANNELS 3 Zrotation Xrotation Yrotation
                JOINT lPinky2
                {
                  OFFSET 1.82734 -0.647385 -0.700984
                  CHANNELS 3 Zrotation Xrotation Yrotation
                  End Site
                  {
                    OFFSET 1.69225 -0.51767 -0.607171
                  }
                }
              }
            }
          }
        }
      }
    }
  }
  JOINT rButtock
  {
    OFFSET -8.77824 4.35084 1.2192
    CHANNELS 3 Zrotation Xrotation Yrotation
    JOINT rThigh
    {
      OFFSET 0 -1.70687 -2.19456
      CHANNELS 3 Zrotation Xrotation Yrotation
      JOINT rShin
      {
        OFFSET 0 -36.8199 0.73152
        CHANNELS 3 Zrotation Xrotation Yrotation
        JOINT rFoot
        {
          OFFSET 0.73152 -45.1104 -5.12064
          CHANNELS 3 Zrotation Xrotation Yrotation
          End Site
          {
            OFFSET -1.1221 -3.69964 12.103
          }
        }
      }
    }
  }
  JOINT lButtock
  {
    OFFSET 8.77824 4.35084 1.2192
    CHANNELS 3 Zrotation Xrotation Yrotation
    JOINT lThigh
    {
      OFFSET 0 -1.70687 -2.19456
      CHANNELS 3 Zrotation Xrotation Yrotation
      JOINT lShin
      {
        OFFSET 0 -36.8199 0.73152
        CHANNELS 3 Zrotation Xrotation Yrotation
        JOINT lFoot
        {
          OFFSET -0.73152 -45.1104 -5.12064
          CHANNELS 3 Zrotation Xrotation Yrotation
          End Site
          {
            OFFSET 1.1221 -3.69964 12.103
          }
        }
      }
    }
  }
}
MOTION
Frames:	7
Frame Time:	0.00833333
105.602 83.2579 18.597 -177.971 14.7395 -174.392 7.14517 -3.2368 6.5951 -0.819586 -0.28193 1.8822 -2.63012 1.50902 -1.53204 -2.10715 -4.55777 -1.67194 -0.0 0.0 0.0 -0.0 0.0 0.0 -2.90138e-14 -1.35501e-13 2.73831e-13 23.0604 10.6477 57.8805 -17.1352 -9.78606 32.1078 -0.0441866 5.99883 0.846189 -1.52832e-09 -7.58975e-09 -1.73754e-09 -2.65157e-09 -1.30321e-08 -2.99854e-09 -1.52831e-09 -7.58977e-09 -1.73755e-09 7.73091 5.47488 0.417314 -1.52832e-09 -7.58977e-09 -1.73754e-09 2.90554 0.965183 0.102902 -1.52831e-09 -7.58975e-09 -1.73755e-09 10.2786 0.731801 0.0259123 -1.52832e-09 -7.58975e-09 -1.73754e-09 2.22167 -0.733487 -0.20892 -2.90725e-14 -1.35492e-13 2.73543e-13 -8.58392 -8.41396 -53.5753 11.7384 -5.26701 -21.1046 0.0256233 4.63504 -0.65279 -1.10809e-09 7.12337e-09 -1.77153e-09 -1.92153e-09 1.2288e-08 -3.05906e-09 -1.1081e-09 7.12334e-09 -1.77151e-09 -7.73091 5.47488 -0.417314 -1.10809e-09 7.12335e-09 -1.77152e-09 -2.90554 0.965183 -0.102902 -1.1081e-09 7.12336e-09 -1.77153e-09 -10.2786 0.731801 -0.0259123 -1.10809e-09 7.12336e-09 -1.77154e-09 -2.22167 -0.733487 0.20892 -2.03217e-16 0.0 -3.88251e-19 1.76382 4.84783 8.90804 0.0031558 13.2159 0.3947 0.0881406 -7.61554 1.81287 2.03217e-16 0.0 3.88251e-19 11.6783 -33.8149 -14.2136 0.0336123 14.9234 -0.419564 4.35366 -5.83551 22.8803
105.686 83.1294 17.8396 -177.554 15.4785 -174.197 7.23893 -3.342 6.58448 -0.816076 -0.26068 1.87846 -2.52985 1.49529 -1.49231 -2.25158 -4.74466 -1.65371 -0.0 0.0 0.0 -0.0 0.0 0.0 -5.08591e-14 -1.84927e-13 2.81578e-13 22.9724 10.6039 57.7452 -17.1421 -9.79319 32.1228 -0.0416701 5.81624 0.820267 -1.13054e-09 -7.6614e-09 -1.64516e-09 -1.96328e-09 -1.319e-08 -2.84206e-09 -1.13053e-09 -7.66142e-09 -1.64517e-09 7.73091 5.47488 0.417314 -1.13054e-09 -7.66142e-09 -1.64517e-09 2.90554 0.965183 0.102902 -1.13053e-09 -7.66139e-09 -1.64517e-09 10.2786 0.731801 0.0259123 -1.13054e-09 -7.66139e-09 -1.64516e-09 2.22167 -0.733487 -0.20892 -5.09221e-14 -1.84912e-13 2.8133e-13 -8.72837 -8.85023 -53.2922 11.6546 -5.20937 -20.9433 0.0316357 5.07044 -0.714488 -1.69269e-09 6.73619e-09 -2.00439e-09 -2.93284e-09 1.16093e-08 -3.45986e-09 -1.6927e-09 6.73616e-09 -2.00437e-09 -7.73091 5.47488 -0.417314 -1.69269e-09 6.73618e-09 -2.00439e-09 -2.90554 0.965183 -0.102902 -1.6927e-09 6.73618e-09 -2.00439e-09 -10.2786 0.731801 -0.0259123 -1.69269e-09 6.73618e-09 -2.0044e-09 -2.22167 -0.733487 0.20892 -2.03217e-16 0.0 -3.88251e-19 1.76306 5.42283 8.87642 0.00338161 12.7428 0.385616 0.117225 -7.41802 2.05018 2.03217e-16 0.0 3.88251e-19 11.7692 -33.9971 -14.2745 0.0300599 14.8049 -0.436273 4.96869 -6.7237 23.9393
105.691 83.022 17.038 -177.51 16.0631 -174.101 7.35067 -3.4034 6.56394 -0.807258 -0.209271 1.87235 -2.52842 1.43232 -1.45438 -2.33991 -4.77818 -1.59361 -0.0 0.0 0.0 -0.0 0.0 0.0 -4.23124e-14 -1.35461e-13 1.29458e-13 22.9746 10.4899 57.6466 -17.1306 -9.78155 32.0975 -0.0411823 5.77567 0.814516 -6.86062e-10 -4.80312e-09 -9.55781e-10 -1.19188e-09 -8.27464e-09 -1.65154e-09 -6.86055e-10 -4.80314e-09 -9.5579e-10 7.73091 5.47488 0.417314 -6.86062e-10 -4.80315e-09 -9.55785e-10 2.90554 0.965183 0.102902 -6.86056e-10 -4.80312e-09 -9.55784e-10 10.2786 0.731801 0.0259123 -6.86063e-10 -4.80312e-09 -9.55777e-10 2.22167 -0.733487 -0.20892 -4.23592e-14 -1.35444e-13 1.29231e-13 -8.71032 -9.17347 -52.9795 11.5716 -5.15281 -20.7837 0.0340394 5.23095 -0.737261 -1.29023e-09 4.93207e-09 -1.55682e-09 -2.23599e-09 8.50166e-09 -2.68811e-09 -1.29023e-09 4.93205e-09 -1.5568e-09 -7.73091 5.47488 -0.417314 -1.29022e-09 4.93206e-09 -1.55682e-09 -2.90554 0.965183 -0.102902 -1.29023e-09 4.93206e-09 -1.55682e-09 -10.2786 0.731801 -0.0259123 -1.29022e-09 4.93206e-09 -1.55683e-09 -2.22167 -0.733487 0.20892 -2.03217e-16 0.0 -3.88251e-19 1.75685 6.05345 8.84205 0.00356709 12.3429 0.377344 0.146025 -7.2798 2.27583 2.03217e-16 0.0 3.88251e-19 11.8705 -34.0452 -14.1522 0.0273645 14.7203 -0.44855 5.44443 -7.35405 24.7418
105.705 82.9167 16.2371 -177.391 16.679 -173.997 7.45928 -3.44731 6.52877 -0.78473 -0.148043 1.8625 -2.5812 1.3459 -1.41549 -2.40356 -4.72185 -1.50537 -0.0 0.0 0.0 -0.0 0.0 0.0 -1.55847e-14 -2.32812e-14 -1.28272e-13 23.0599 10.3162 57.568 -17.1021 -9.75297 32.0355 -0.0420107 5.83493 0.822929 -1.70431e-10 -8.74567e-11 1.39866e-10 -2.95817e-10 -1.46112e-10 2.42317e-10 -1.70424e-10 -8.74818e-11 1.39857e-10 7.73091 5.47488 0.417314 -1.70431e-10 -8.74902e-11 1.39861e-10 2.90554 0.965183 0.102902 -1.70422e-10 -8.74691e-11 1.39863e-10 10.2786 0.731801 0.0259123 -1.70433e-10 -8.74607e-11 1.39871e-10 2.22167 -0.733487 -0.20892 -1.56039e-14 -2.32651e-14 -1.28483e-13 -8.6149 -9.43016 -52.659 11.4874 -5.09584 -20.622 0.0342504 5.24875 -0.739783 -2.7445e-10 2.11242e-09 -6.67571e-10 -4.77745e-10 3.65138e-09 -1.1552e-09 -2.74454e-10 2.11241e-09 -6.67561e-10 -7.73091 5.47488 -0.417314 -2.74447e-10 2.11241e-09 -6.67576e-10 -2.90554 0.965183 -0.102902 -2.74458e-10 2.11242e-09 -6.67577e-10 -10.2786 0.731801 -0.0259123 -2.74447e-10 2.11241e-09 -6.67586e-10 -2.22167 -0.733487 0.20892 -2.03217e-16 0.0 -3.88251e-19 1.75294 6.69579 8.79521 0.00371267 12.0119 0.36978 0.173176 -7.17888 2.4846 2.03217e-16 0.0 3.88251e-19 11.9852 -34.0214 -13.8641 0.0253525 14.6704 -0.458275 5.80561 -7.81309 25.3151
105.845 82.7922 15.4563 -176.85 17.5445 -173.837 7.56384 -3.48292 6.50155 -0.757483 -0.0882734 1.85519 -2.62849 1.24578 -1.37212 -2.46683 -4.62853 -1.40592 -0.0 0.0 0.0 -0.0 0.0 0.0 1.34173e-14 8.73664e-14 -3.75886e-13 23.1695 10.1186 57.4812 -17.0679 -9.71851 31.9609 -0.0432651 5.9246 0.83566 3.39715e-10 4.39714e-09 1.21608e-09 5.90683e-10 7.58634e-09 2.10268e-09 3.39723e-10 4.39711e-09 1.21607e-09 7.73091 5.47488 0.417314 3.39715e-10 4.3971e-09 1.21608e-09 2.90554 0.965183 0.102902 3.39727e-10 4.39712e-09 1.21608e-09 10.2786 0.731801 0.0259123 3.39712e-10 4.39713e-09 1.21609e-09 2.22167 -0.733487 -0.20892 1.3426e-14 8.73807e-14 -3.76087e-13 -8.46087 -9.63682 -52.3396 11.4113 -5.04449 -20.476 0.0337015 5.22171 -0.735934 7.69983e-10 -7.3799e-10 2.615e-10 1.33035e-09 -1.25229e-09 4.46696e-10 7.6998e-10 -7.37991e-10 2.61505e-10 -7.73091 5.47488 -0.417314 7.69987e-10 -7.37991e-10 2.61489e-10 -2.90554 0.965183 -0.102902 7.69975e-10 -7.37989e-10 2.61492e-10 -10.2786 0.731801 -0.0259123 7.69984e-10 -7.37991e-10 2.61483e-10 -2.22167 -0.733487 0.20892 -2.03217e-16 0.0 -3.88251e-19 1.74395 7.33905 8.78266 0.00387843 11.7238 0.363116 0.201294 -7.08241 2.70407 2.03217e-16 0.0 3.88251e-19 12.1343 -33.9585 -13.3711 0.0243169 14.6823 -0.465303 6.04319 -8.0742 25.7184
105.995 82.6801 14.6254 -176.309 18.5231 -173.745 7.66348 -3.51938 6.50485 -0.734538 -0.0412385 1.8567 -2.61058 1.1417 -1.32076 -2.55368 -4.55107 -1.31213 -0.0 0.0 0.0 -0.0 0.0 0.0 2.87866e-14 1.32236e-13 -4.97657e-13 23.2447 9.93264 57.3574 -17.0388 -9.68935 31.8978 -0.0439905 5.97526 0.842856 7.67735e-10 6.56222e-09 1.84717e-09 1.33339e-09 1.13135e-08 3.19272e-09 7.67743e-10 6.5622e-09 1.84716e-09 7.73091 5.47488 0.417314 7.67735e-10 6.56219e-09 1.84716e-09 2.90554 0.965183 0.102902 7.67749e-10 6.5622e-09 1.84717e-09 10.2786 0.731801 0.0259123 7.67732e-10 6.56222e-09 1.84718e-09 2.22167 -0.733487 -0.20892 2.8813e-14 1.32248e-13 -4.97856e-13 -8.26673 -9.81053 -52.0302 11.3525 -5.00488 -20.3636 0.033894 5.24768 -0.739603 1.25842e-09 -2.63438e-09 8.28541e-10 2.17673e-09 -4.52018e-09 1.42542e-09 1.25842e-09 -2.63437e-09 8.28544e-10 -7.73091 5.47488 -0.417314 1.25843e-09 -2.63438e-09 8.28528e-10 -2.90554 0.965183 -0.102902 1.25842e-09 -2.63438e-09 8.28534e-10 -10.2786 0.731801 -0.0259123 1.25843e-09 -2.63438e-09 8.28525e-10 -2.22167 -0.733487 0.20892 -2.03217e-16 0.0 -3.88251e-19 1.72039 7.9721 8.85134 0.00411168 11.4527 0.357554 0.23229 -6.95756 2.96171 2.03217e-16 0.0 3.88251e-19 12.3387 -33.8878 -12.6339 0.0245493 14.7833 -0.469494 6.15233 -8.10851 26.0121
106.077 82.5564 13.8078 -175.949 19.3764 -173.591 7.77477 -3.54204 6.56252 -0.717988 -0.0158805 1.87402 -2.4891 1.00831 -1.26705 -2.70042 -4.47392 -1.24668 -0.0 0.0 0.0 -0.0 0.0 0.0 2.11999e-14 7.3526e-14 -4.24467e-13 23.2517 9.76527 57.1691 -17.0214 -9.67189 31.8601 -0.044118 5.98276 0.843924 1.15469e-09 5.11669e-09 1.8606e-09 2.0027e-09 8.80284e-09 3.21341e-09 1.1547e-09 5.11667e-09 1.86058e-09 7.73091 5.47488 0.417314 1.15469e-09 5.11667e-09 1.86059e-09 2.90554 0.965183 0.102902 1.15471e-09 5.11667e-09 1.86059e-09 10.2786 0.731801 0.0259123 1.15469e-09 5.11669e-09 1.8606e-09 2.22167 -0.733487 -0.20892 2.12327e-14 7.35359e-14 -4.24674e-13 -8.03523 -9.95667 -51.746 11.3179 -4.98156 -20.2975 0.0351743 5.34675 -0.753646 8.85422e-10 -3.20161e-09 8.57387e-10 1.53323e-09 -5.51107e-09 1.47791e-09 8.85419e-10 -3.20161e-09 8.57391e-10 -7.73091 5.47488 -0.417314 8.85426e-10 -3.20161e-09 8.57377e-10 -2.90554 0.965183 -0.102902 8.85416e-10 -3.20161e-09 8.57383e-10 -10.2786 0.731801 -0.0259123 8.85424e-10 -3.20161e-09 8.57373e-10 -2.22167 -0.733487 0.20892 -2.03217e-16 0.0 -3.88251e-19 1.70519 8.60348 9.0355 0.00447264 11.1738 0.352495 0.262514 -6.80406 3.23737 2.03217e-16 0.0 3.88251e-19 12.6431 -33.8121 -11.5538 0.0263502 14.9808 -0.468896 6.07947 -7.82913 26.1622
